<svg width="18" height="19" viewBox="0 0 18 19" fill="none" xmlns="http://www.w3.org/2000/svg">
<path d="M9 2.42871C7.51664 2.42871 6.0666 2.86858 4.83323 3.69269C3.59986 4.5168 2.63856 5.68814 2.07091 7.05859C1.50325 8.42903 1.35472 9.93703 1.64411 11.3919C1.9335 12.8467 2.64781 14.1831 3.6967 15.232C4.7456 16.2809 6.08197 16.9952 7.53683 17.2846C8.99168 17.574 10.4997 17.4255 11.8701 16.8578C13.2406 16.2902 14.4119 15.3289 15.236 14.0955C16.0601 12.8621 16.5 11.4121 16.5 9.92871C16.5 8.9438 16.306 7.96853 15.9291 7.05859C15.5522 6.14864 14.9997 5.32185 14.3033 4.62541C13.6069 3.92897 12.7801 3.37652 11.8701 2.99961C10.9602 2.6227 9.98492 2.42871 9 2.42871ZM11.6475 11.7812C11.7521 11.8871 11.8108 12.0299 11.8108 12.1787C11.8108 12.3275 11.7521 12.4704 11.6475 12.5762C11.5954 12.6285 11.5334 12.6701 11.4652 12.6984C11.397 12.7268 11.3239 12.7413 11.25 12.7413C11.1761 12.7413 11.103 12.7268 11.0348 12.6984C10.9666 12.6701 10.9046 12.6285 10.8525 12.5762L9 10.7237L7.1475 12.5762C7.09538 12.6285 7.03343 12.6701 6.96522 12.6984C6.89701 12.7268 6.82387 12.7413 6.75 12.7413C6.67614 12.7413 6.603 12.7268 6.53479 12.6984C6.46657 12.6701 6.40463 12.6285 6.3525 12.5762C6.24789 12.4704 6.18923 12.3275 6.18923 12.1787C6.18923 12.0299 6.24789 11.8871 6.3525 11.7812L8.205 9.92871L6.3525 8.07621C6.25314 7.96958 6.19905 7.82855 6.20162 7.68282C6.20419 7.53709 6.26323 7.39805 6.36629 7.29499C6.46935 7.19194 6.60839 7.1329 6.75411 7.13033C6.89984 7.12776 7.04087 7.18185 7.1475 7.28121L9 9.13371L10.8525 7.28121C10.9591 7.18185 11.1002 7.12776 11.2459 7.13033C11.3916 7.1329 11.5307 7.19194 11.6337 7.29499C11.7368 7.39805 11.7958 7.53709 11.7984 7.68282C11.801 7.82855 11.7469 7.96958 11.6475 8.07621L9.795 9.92871L11.6475 11.7812Z" fill="#EC4040"/>
</svg>
