<svg width="20" height="20" viewBox="0 0 20 20" fill="none" xmlns="http://www.w3.org/2000/svg">
<g id="check-circle">
<path id="Vector" opacity="0.4" d="M10 20C15.5228 20 20 15.5228 20 10C20 4.47715 15.5228 0 10 0C4.47715 0 0 4.47715 0 10C0 15.5228 4.47715 20 10 20Z" fill="#84D246"/>
<path id="Vector_2" d="M8.83285 13.0829C8.63417 13.0829 8.44359 13.0042 8.30285 12.8639L5.96985 10.5299C5.83737 10.3878 5.76524 10.1997 5.76867 10.0054C5.7721 9.81112 5.85081 9.62573 5.98822 9.48832C6.12564 9.35091 6.31102 9.27219 6.50532 9.26877C6.69963 9.26534 6.88767 9.33746 7.02985 9.46994L8.82985 11.2699L12.9698 7.13594C13.0397 7.06634 13.1226 7.01118 13.2138 6.97362C13.305 6.93605 13.4026 6.91681 13.5013 6.91699C13.5999 6.91718 13.6975 6.93679 13.7885 6.9747C13.8796 7.01261 13.9622 7.06808 14.0318 7.13794C14.1014 7.2078 14.1566 7.29069 14.1942 7.38187C14.2317 7.47305 14.251 7.57074 14.2508 7.66936C14.2506 7.76797 14.231 7.86558 14.1931 7.95662C14.1552 8.04766 14.0997 8.13034 14.0298 8.19994L9.36385 12.8669C9.22237 13.0063 9.03144 13.084 8.83285 13.0829Z" fill="#84D246"/>
</g>
</svg>
